<svg width="194" height="126" viewBox="0 0 194 126" fill="none" xmlns="http://www.w3.org/2000/svg">
<path d="M17.6872 105.903L27.3106 84.6527H30.316L39.9698 105.903H36.7823L28.191 86.3527H29.4053L20.814 105.903H17.6872ZM21.7855 100.591L22.6051 98.1619H34.5661L35.4465 100.591H21.7855ZM49.7311 106.085C48.0108 106.085 46.4929 105.731 45.1774 105.023C43.8821 104.314 42.8702 103.343 42.1416 102.108C41.4333 100.874 41.0791 99.4572 41.0791 97.8584C41.0791 96.2595 41.4231 94.8428 42.1113 93.6083C42.8196 92.3737 43.7809 91.4124 44.9953 90.7243C46.2298 90.0159 47.6162 89.6617 49.1543 89.6617C50.7127 89.6617 52.0889 90.0058 53.283 90.6939C54.477 91.382 55.408 92.3535 56.0759 93.6083C56.764 94.8428 57.108 96.2899 57.108 97.9494C57.108 98.0709 57.0979 98.2125 57.0777 98.3744C57.0777 98.5364 57.0676 98.6881 57.0473 98.8298H43.3559V96.7351H55.5294L54.3455 97.4637C54.3657 96.4315 54.1532 95.5107 53.708 94.7011C53.2627 93.8916 52.6454 93.2642 51.8561 92.819C51.0871 92.3535 50.1865 92.1207 49.1543 92.1207C48.1424 92.1207 47.2417 92.3535 46.4524 92.819C45.6631 93.2642 45.0459 93.9017 44.6006 94.7315C44.1554 95.541 43.9327 96.472 43.9327 97.5244V98.0102C43.9327 99.0828 44.1756 100.044 44.6613 100.894C45.1673 101.724 45.8655 102.372 46.756 102.837C47.6465 103.303 48.6686 103.535 49.8222 103.535C50.7734 103.535 51.6335 103.373 52.4026 103.05C53.1919 102.726 53.88 102.24 54.4669 101.592L56.0759 103.475C55.3473 104.325 54.4366 104.972 53.3437 105.417C52.271 105.863 51.0668 106.085 49.7311 106.085ZM61.1549 105.903V89.8135H63.9478V94.1851L63.6746 93.0922C64.1198 91.9791 64.8687 91.129 65.9211 90.5421C66.9735 89.9552 68.2688 89.6617 69.8069 89.6617V92.485C69.6855 92.4648 69.564 92.4547 69.4426 92.4547C69.3414 92.4547 69.2402 92.4547 69.139 92.4547C67.5806 92.4547 66.3461 92.9202 65.4354 93.8511C64.5246 94.7821 64.0692 96.128 64.0692 97.8887V105.903H61.1549ZM80.1418 106.085C78.5228 106.085 77.0858 105.731 75.831 105.023C74.5762 104.314 73.5845 103.343 72.856 102.108C72.1274 100.854 71.7631 99.437 71.7631 97.8584C71.7631 96.2595 72.1274 94.8428 72.856 93.6083C73.5845 92.3737 74.5762 91.4124 75.831 90.7243C77.0858 90.0159 78.5228 89.6617 80.1418 89.6617C81.7407 89.6617 83.1675 90.0159 84.4223 90.7243C85.6973 91.4124 86.689 92.3737 87.3974 93.6083C88.126 94.8226 88.4903 96.2393 88.4903 97.8584C88.4903 99.4572 88.126 100.874 87.3974 102.108C86.689 103.343 85.6973 104.314 84.4223 105.023C83.1675 105.731 81.7407 106.085 80.1418 106.085ZM80.1418 103.535C81.174 103.535 82.0949 103.303 82.9044 102.837C83.7342 102.372 84.3818 101.714 84.8473 100.864C85.3128 99.9935 85.5455 98.9917 85.5455 97.8584C85.5455 96.7048 85.3128 95.7131 84.8473 94.8833C84.3818 94.0333 83.7342 93.3755 82.9044 92.91C82.0949 92.4445 81.174 92.2118 80.1418 92.2118C79.1097 92.2118 78.1888 92.4445 77.3793 92.91C76.5697 93.3755 75.9221 94.0333 75.4364 94.8833C74.9506 95.7131 74.7078 96.7048 74.7078 97.8584C74.7078 98.9917 74.9506 99.9935 75.4364 100.864C75.9221 101.714 76.5697 102.372 77.3793 102.837C78.1888 103.303 79.1097 103.535 80.1418 103.535Z" fill="#E51515"/>
<path d="M99.6782 106.095C98.0355 106.095 96.5635 105.733 95.2622 105.007C93.9822 104.282 92.9688 103.269 92.2222 101.967C91.4755 100.666 91.1022 99.1512 91.1022 97.4232C91.1022 95.6952 91.4755 94.1912 92.2222 92.9112C92.9688 91.6099 93.9822 90.5965 95.2622 89.8712C96.5635 89.1459 98.0355 88.7832 99.6782 88.7832C101.107 88.7832 102.398 89.1032 103.55 89.7432C104.702 90.3832 105.619 91.3432 106.302 92.6232C107.006 93.9032 107.358 95.5032 107.358 97.4232C107.358 99.3432 107.017 100.943 106.334 102.223C105.673 103.503 104.766 104.474 103.614 105.135C102.462 105.775 101.15 106.095 99.6782 106.095ZM99.9342 103.407C101.001 103.407 101.961 103.162 102.814 102.671C103.689 102.181 104.371 101.487 104.862 100.591C105.374 99.6739 105.63 98.6179 105.63 97.4232C105.63 96.2072 105.374 95.1619 104.862 94.2872C104.371 93.3912 103.689 92.6979 102.814 92.2072C101.961 91.7165 101.001 91.4712 99.9342 91.4712C98.8462 91.4712 97.8755 91.7165 97.0222 92.2072C96.1688 92.6979 95.4862 93.3912 94.9742 94.2872C94.4622 95.1619 94.2062 96.2072 94.2062 97.4232C94.2062 98.6179 94.4622 99.6739 94.9742 100.591C95.4862 101.487 96.1688 102.181 97.0222 102.671C97.8755 103.162 98.8462 103.407 99.9342 103.407ZM105.726 105.903V101.327L105.918 97.3912L105.598 93.4552V82.1592H108.67V105.903H105.726ZM114.483 105.903V88.9432H117.427V93.5512L117.139 92.3992C117.608 91.2259 118.397 90.3299 119.507 89.7112C120.616 89.0925 121.981 88.7832 123.603 88.7832V91.7592C123.475 91.7379 123.347 91.7272 123.219 91.7272C123.112 91.7272 123.005 91.7272 122.899 91.7272C121.256 91.7272 119.955 92.2179 118.995 93.1992C118.035 94.1805 117.555 95.5992 117.555 97.4552V105.903H114.483ZM134.497 106.095C132.79 106.095 131.275 105.722 129.953 104.975C128.63 104.229 127.585 103.205 126.817 101.903C126.049 100.581 125.665 99.0872 125.665 97.4232C125.665 95.7379 126.049 94.2445 126.817 92.9432C127.585 91.6419 128.63 90.6285 129.953 89.9032C131.275 89.1565 132.79 88.7832 134.497 88.7832C136.182 88.7832 137.686 89.1565 139.009 89.9032C140.353 90.6285 141.398 91.6419 142.145 92.9432C142.913 94.2232 143.297 95.7165 143.297 97.4232C143.297 99.1085 142.913 100.602 142.145 101.903C141.398 103.205 140.353 104.229 139.009 104.975C137.686 105.722 136.182 106.095 134.497 106.095ZM134.497 103.407C135.585 103.407 136.555 103.162 137.409 102.671C138.283 102.181 138.966 101.487 139.457 100.591C139.947 99.6739 140.193 98.6179 140.193 97.4232C140.193 96.2072 139.947 95.1619 139.457 94.2872C138.966 93.3912 138.283 92.6979 137.409 92.2072C136.555 91.7165 135.585 91.4712 134.497 91.4712C133.409 91.4712 132.438 91.7165 131.585 92.2072C130.731 92.6979 130.049 93.3912 129.537 94.2872C129.025 95.1619 128.769 96.2072 128.769 97.4232C128.769 98.6179 129.025 99.6739 129.537 100.591C130.049 101.487 130.731 102.181 131.585 102.671C132.438 103.162 133.409 103.407 134.497 103.407ZM156.601 88.7832C157.988 88.7832 159.204 89.0499 160.249 89.5832C161.316 90.1165 162.148 90.9272 162.745 92.0152C163.342 93.1032 163.641 94.4792 163.641 96.1432V105.903H160.569V96.4952C160.569 94.8525 160.164 93.6152 159.353 92.7832C158.564 91.9512 157.444 91.5352 155.993 91.5352C154.905 91.5352 153.956 91.7485 153.145 92.1752C152.334 92.6019 151.705 93.2312 151.257 94.0632C150.83 94.8952 150.617 95.9299 150.617 97.1672V105.903H147.545V88.9432H150.489V93.5192L150.009 92.3032C150.564 91.1939 151.417 90.3299 152.569 89.7112C153.721 89.0925 155.065 88.7832 156.601 88.7832ZM176.878 106.095C175.065 106.095 173.465 105.722 172.078 104.975C170.713 104.229 169.646 103.205 168.878 101.903C168.132 100.602 167.758 99.1085 167.758 97.4232C167.758 95.7379 168.121 94.2445 168.846 92.9432C169.593 91.6419 170.606 90.6285 171.886 89.9032C173.188 89.1565 174.649 88.7832 176.27 88.7832C177.913 88.7832 179.364 89.1459 180.622 89.8712C181.881 90.5965 182.862 91.6205 183.566 92.9432C184.292 94.2445 184.654 95.7699 184.654 97.5192C184.654 97.6472 184.644 97.7965 184.622 97.9672C184.622 98.1379 184.612 98.2979 184.59 98.4472H170.158V96.2392H182.99L181.742 97.0072C181.764 95.9192 181.54 94.9485 181.07 94.0952C180.601 93.2419 179.95 92.5805 179.118 92.1112C178.308 91.6205 177.358 91.3752 176.27 91.3752C175.204 91.3752 174.254 91.6205 173.422 92.1112C172.59 92.5805 171.94 93.2525 171.47 94.1272C171.001 94.9805 170.766 95.9619 170.766 97.0712V97.5832C170.766 98.7139 171.022 99.7272 171.534 100.623C172.068 101.498 172.804 102.181 173.742 102.671C174.681 103.162 175.758 103.407 176.974 103.407C177.977 103.407 178.884 103.237 179.694 102.895C180.526 102.554 181.252 102.042 181.87 101.359L183.566 103.343C182.798 104.239 181.838 104.922 180.686 105.391C179.556 105.861 178.286 106.095 176.878 106.095Z" fill="#1F3B4F"/>
<path d="M40.5357 122.671C40.0209 122.671 39.6243 122.532 39.346 122.254C39.0677 121.976 38.9286 121.582 38.9286 121.075V115.93H39.6695V121.033C39.6695 121.353 39.7495 121.6 39.9095 121.774C40.0765 121.948 40.3131 122.035 40.6192 122.035C40.9461 122.035 41.2175 121.941 41.4331 121.753L41.694 122.285C41.5479 122.417 41.3705 122.515 41.1618 122.577C40.9601 122.64 40.7513 122.671 40.5357 122.671ZM37.9477 117.756V117.14H41.3392V117.756H37.9477ZM46.4761 122.619V121.409L46.4448 121.21V119.186C46.4448 118.72 46.3126 118.361 46.0482 118.111C45.7908 117.86 45.4047 117.735 44.8899 117.735C44.5351 117.735 44.1977 117.794 43.8776 117.913C43.5576 118.031 43.2863 118.187 43.0637 118.382L42.7297 117.829C43.008 117.593 43.342 117.412 43.7316 117.287C44.1211 117.154 44.5316 117.088 44.9629 117.088C45.6726 117.088 46.2187 117.266 46.6013 117.62C46.9909 117.968 47.1857 118.501 47.1857 119.217V122.619H46.4761ZM44.5873 122.671C44.1768 122.671 43.8185 122.605 43.5124 122.473C43.2133 122.334 42.9837 122.146 42.8237 121.909C42.6637 121.666 42.5836 121.388 42.5836 121.075C42.5836 120.789 42.6497 120.532 42.7819 120.302C42.9211 120.066 43.1437 119.878 43.4498 119.739C43.7629 119.593 44.1803 119.52 44.7021 119.52H46.5909V120.073H44.7229C44.1942 120.073 43.8255 120.167 43.6168 120.355C43.415 120.542 43.3141 120.775 43.3141 121.054C43.3141 121.367 43.4359 121.617 43.6794 121.805C43.9229 121.993 44.2638 122.087 44.7021 122.087C45.1195 122.087 45.4778 121.993 45.7769 121.805C46.083 121.61 46.3056 121.332 46.4448 120.97L46.6118 121.482C46.4726 121.843 46.2291 122.132 45.8813 122.348C45.5404 122.563 45.109 122.671 44.5873 122.671ZM51.5357 124.696C51.0348 124.696 50.5547 124.623 50.0956 124.477C49.6364 124.331 49.2642 124.122 48.979 123.85L49.3547 123.287C49.6121 123.517 49.9286 123.697 50.3043 123.83C50.6869 123.969 51.0904 124.038 51.5148 124.038C52.2105 124.038 52.7219 123.875 53.0488 123.548C53.3758 123.228 53.5393 122.727 53.5393 122.045V120.678L53.6437 119.739L53.5706 118.8V117.14H54.2802V121.951C54.2802 122.897 54.0472 123.59 53.581 124.028C53.1219 124.473 52.4401 124.696 51.5357 124.696ZM51.4 122.41C50.8783 122.41 50.4087 122.299 49.9912 122.076C49.5738 121.847 49.2434 121.53 48.9999 121.127C48.7633 120.723 48.645 120.261 48.645 119.739C48.645 119.217 48.7633 118.758 48.9999 118.361C49.2434 117.958 49.5738 117.645 49.9912 117.422C50.4087 117.2 50.8783 117.088 51.4 117.088C51.887 117.088 52.3253 117.189 52.7149 117.391C53.1045 117.593 53.4141 117.892 53.6437 118.288C53.8732 118.685 53.988 119.168 53.988 119.739C53.988 120.309 53.8732 120.793 53.6437 121.189C53.4141 121.586 53.1045 121.889 52.7149 122.097C52.3253 122.306 51.887 122.41 51.4 122.41ZM51.4731 121.753C51.8766 121.753 52.2349 121.669 52.5479 121.502C52.861 121.329 53.108 121.092 53.2889 120.793C53.4697 120.487 53.5602 120.135 53.5602 119.739C53.5602 119.342 53.4697 118.994 53.2889 118.695C53.108 118.396 52.861 118.163 52.5479 117.996C52.2349 117.822 51.8766 117.735 51.4731 117.735C51.0765 117.735 50.7182 117.822 50.3982 117.996C50.0852 118.163 49.8382 118.396 49.6573 118.695C49.4834 118.994 49.3964 119.342 49.3964 119.739C49.3964 120.135 49.4834 120.487 49.6573 120.793C49.8382 121.092 50.0852 121.329 50.3982 121.502C50.7182 121.669 51.0765 121.753 51.4731 121.753ZM56.342 122.619V114.876H57.0829V122.619H56.342ZM59.1445 122.619V117.14H59.8854V122.619H59.1445ZM59.5202 115.93C59.3671 115.93 59.2384 115.878 59.134 115.773C59.0297 115.669 58.9775 115.544 58.9775 115.398C58.9775 115.252 59.0297 115.13 59.134 115.032C59.2384 114.928 59.3671 114.876 59.5202 114.876C59.6732 114.876 59.8019 114.925 59.9063 115.022C60.0106 115.119 60.0628 115.241 60.0628 115.387C60.0628 115.54 60.0106 115.669 59.9063 115.773C59.8089 115.878 59.6802 115.93 59.5202 115.93ZM64.7437 117.088C65.189 117.088 65.5786 117.175 65.9125 117.349C66.2534 117.516 66.5177 117.774 66.7056 118.121C66.9004 118.469 66.9978 118.908 66.9978 119.436V122.619H66.2569V119.509C66.2569 118.932 66.1108 118.497 65.8186 118.205C65.5333 117.906 65.1298 117.756 64.608 117.756C64.2185 117.756 63.8776 117.836 63.5854 117.996C63.3001 118.149 63.0775 118.375 62.9175 118.674C62.7644 118.967 62.6879 119.321 62.6879 119.739V122.619H61.947V117.14H62.6566V118.643L62.5418 118.361C62.7157 117.965 62.994 117.655 63.3767 117.433C63.7593 117.203 64.215 117.088 64.7437 117.088ZM71.3262 122.671C70.7558 122.671 70.2549 122.553 69.8235 122.316C69.3922 122.073 69.0548 121.742 68.8113 121.325C68.5678 120.901 68.446 120.417 68.446 119.875C68.446 119.332 68.5608 118.852 68.7904 118.434C69.0269 118.017 69.347 117.69 69.7505 117.453C70.1609 117.21 70.6201 117.088 71.128 117.088C71.6428 117.088 72.0985 117.207 72.495 117.443C72.8985 117.673 73.2151 118 73.4446 118.424C73.6742 118.841 73.789 119.325 73.789 119.875C73.789 119.909 73.7855 119.948 73.7786 119.989C73.7786 120.024 73.7786 120.062 73.7786 120.104H69.0096V119.551H73.382L73.0898 119.77C73.0898 119.374 73.0029 119.022 72.829 118.716C72.662 118.403 72.4324 118.16 72.1402 117.986C71.848 117.812 71.5106 117.725 71.128 117.725C70.7523 117.725 70.4149 117.812 70.1157 117.986C69.8166 118.16 69.5835 118.403 69.4165 118.716C69.2496 119.029 69.1661 119.388 69.1661 119.791V119.906C69.1661 120.323 69.2565 120.692 69.4374 121.012C69.6252 121.325 69.8827 121.572 70.2096 121.753C70.5436 121.927 70.9227 122.014 71.3471 122.014C71.681 122.014 71.9906 121.955 72.2759 121.836C72.5681 121.718 72.8185 121.537 73.0272 121.294L73.4446 121.774C73.2012 122.066 72.895 122.289 72.5263 122.442C72.1646 122.595 71.7645 122.671 71.3262 122.671ZM80.3658 124.696C79.8649 124.696 79.3849 124.623 78.9257 124.477C78.4666 124.331 78.0944 124.122 77.8091 123.85L78.1848 123.287C78.4422 123.517 78.7588 123.697 79.1344 123.83C79.5171 123.969 79.9206 124.038 80.345 124.038C81.0407 124.038 81.552 123.875 81.879 123.548C82.206 123.228 82.3695 122.727 82.3695 122.045V120.678L82.4738 119.739L82.4008 118.8V117.14H83.1104V121.951C83.1104 122.897 82.8773 123.59 82.4112 124.028C81.952 124.473 81.2703 124.696 80.3658 124.696ZM80.2302 122.41C79.7084 122.41 79.2388 122.299 78.8214 122.076C78.404 121.847 78.0735 121.53 77.83 121.127C77.5935 120.723 77.4752 120.261 77.4752 119.739C77.4752 119.217 77.5935 118.758 77.83 118.361C78.0735 117.958 78.404 117.645 78.8214 117.422C79.2388 117.2 79.7084 117.088 80.2302 117.088C80.7172 117.088 81.1555 117.189 81.5451 117.391C81.9346 117.593 82.2442 117.892 82.4738 118.288C82.7034 118.685 82.8182 119.168 82.8182 119.739C82.8182 120.309 82.7034 120.793 82.4738 121.189C82.2442 121.586 81.9346 121.889 81.5451 122.097C81.1555 122.306 80.7172 122.41 80.2302 122.41ZM80.3032 121.753C80.7067 121.753 81.065 121.669 81.3781 121.502C81.6911 121.329 81.9381 121.092 82.119 120.793C82.2999 120.487 82.3903 120.135 82.3903 119.739C82.3903 119.342 82.2999 118.994 82.119 118.695C81.9381 118.396 81.6911 118.163 81.3781 117.996C81.065 117.822 80.7067 117.735 80.3032 117.735C79.9067 117.735 79.5484 117.822 79.2284 117.996C78.9153 118.163 78.6683 118.396 78.4874 118.695C78.3135 118.994 78.2266 119.342 78.2266 119.739C78.2266 120.135 78.3135 120.487 78.4874 120.793C78.6683 121.092 78.9153 121.329 79.2284 121.502C79.5484 121.669 79.9067 121.753 80.3032 121.753ZM87.4053 122.671C86.8766 122.671 86.4 122.553 85.9757 122.316C85.5582 122.073 85.2278 121.742 84.9843 121.325C84.7408 120.901 84.619 120.417 84.619 119.875C84.619 119.325 84.7408 118.841 84.9843 118.424C85.2278 118.007 85.5582 117.68 85.9757 117.443C86.3931 117.207 86.8696 117.088 87.4053 117.088C87.948 117.088 88.428 117.207 88.8454 117.443C89.2698 117.68 89.6003 118.007 89.8368 118.424C90.0803 118.841 90.202 119.325 90.202 119.875C90.202 120.417 90.0803 120.901 89.8368 121.325C89.6003 121.742 89.2698 122.073 88.8454 122.316C88.4211 122.553 87.941 122.671 87.4053 122.671ZM87.4053 122.014C87.8019 122.014 88.1532 121.927 88.4593 121.753C88.7654 121.572 89.0054 121.322 89.1794 121.002C89.3602 120.675 89.4507 120.299 89.4507 119.875C89.4507 119.443 89.3602 119.068 89.1794 118.748C89.0054 118.427 88.7654 118.181 88.4593 118.007C88.1532 117.826 87.8054 117.735 87.4158 117.735C87.0262 117.735 86.6783 117.826 86.3722 118.007C86.0661 118.181 85.8226 118.427 85.6417 118.748C85.4608 119.068 85.3704 119.443 85.3704 119.875C85.3704 120.299 85.4608 120.675 85.6417 121.002C85.8226 121.322 86.0661 121.572 86.3722 121.753C86.6783 121.927 87.0227 122.014 87.4053 122.014ZM94.0418 122.671C93.4714 122.671 92.9704 122.553 92.5391 122.316C92.1078 122.073 91.7704 121.742 91.5269 121.325C91.2834 120.901 91.1616 120.417 91.1616 119.875C91.1616 119.332 91.2764 118.852 91.506 118.434C91.7425 118.017 92.0626 117.69 92.4661 117.453C92.8765 117.21 93.3357 117.088 93.8436 117.088C94.3584 117.088 94.8141 117.207 95.2106 117.443C95.6141 117.673 95.9307 118 96.1602 118.424C96.3898 118.841 96.5046 119.325 96.5046 119.875C96.5046 119.909 96.5011 119.948 96.4942 119.989C96.4942 120.024 96.4942 120.062 96.4942 120.104H91.7251V119.551H96.0976L95.8054 119.77C95.8054 119.374 95.7185 119.022 95.5445 118.716C95.3776 118.403 95.148 118.16 94.8558 117.986C94.5636 117.812 94.2262 117.725 93.8436 117.725C93.4679 117.725 93.1305 117.812 92.8313 117.986C92.5322 118.16 92.2991 118.403 92.1321 118.716C91.9652 119.029 91.8817 119.388 91.8817 119.791V119.906C91.8817 120.323 91.9721 120.692 92.153 121.012C92.3408 121.325 92.5982 121.572 92.9252 121.753C93.2592 121.927 93.6383 122.014 94.0627 122.014C94.3966 122.014 94.7062 121.955 94.9915 121.836C95.2837 121.718 95.5341 121.537 95.7428 121.294L96.1602 121.774C95.9167 122.066 95.6106 122.289 95.2419 122.442C94.8801 122.595 94.4801 122.671 94.0418 122.671ZM99.4841 122.671C99.0319 122.671 98.6041 122.609 98.2005 122.483C97.797 122.351 97.4805 122.188 97.2509 121.993L97.5849 121.409C97.8075 121.576 98.0927 121.722 98.4406 121.847C98.7884 121.965 99.1537 122.024 99.5363 122.024C100.058 122.024 100.434 121.944 100.663 121.784C100.893 121.617 101.008 121.398 101.008 121.127C101.008 120.925 100.942 120.769 100.809 120.657C100.684 120.539 100.517 120.452 100.309 120.396C100.1 120.334 99.8668 120.282 99.6093 120.24C99.3519 120.198 99.0945 120.149 98.8371 120.094C98.5867 120.038 98.3571 119.958 98.1484 119.854C97.9397 119.742 97.7692 119.593 97.637 119.405C97.5118 119.217 97.4492 118.967 97.4492 118.654C97.4492 118.354 97.5327 118.087 97.6996 117.85C97.8666 117.614 98.1101 117.429 98.4301 117.297C98.7571 117.158 99.1537 117.088 99.6198 117.088C99.9746 117.088 100.329 117.137 100.684 117.234C101.039 117.325 101.331 117.447 101.561 117.6L101.237 118.194C100.994 118.027 100.733 117.909 100.455 117.84C100.176 117.763 99.8981 117.725 99.6198 117.725C99.1258 117.725 98.7606 117.812 98.524 117.986C98.2945 118.153 98.1797 118.368 98.1797 118.633C98.1797 118.841 98.2423 119.005 98.3675 119.123C98.4997 119.241 98.6701 119.335 98.8789 119.405C99.0945 119.468 99.3276 119.52 99.578 119.561C99.8354 119.603 100.089 119.655 100.34 119.718C100.597 119.774 100.83 119.854 101.039 119.958C101.255 120.055 101.425 120.198 101.55 120.386C101.683 120.567 101.749 120.807 101.749 121.106C101.749 121.426 101.658 121.704 101.477 121.941C101.303 122.17 101.046 122.351 100.705 122.483C100.371 122.609 99.9641 122.671 99.4841 122.671ZM108.636 117.088C109.081 117.088 109.471 117.175 109.805 117.349C110.146 117.516 110.41 117.774 110.598 118.121C110.793 118.469 110.89 118.908 110.89 119.436V122.619H110.149V119.509C110.149 118.932 110.003 118.497 109.711 118.205C109.426 117.906 109.022 117.756 108.5 117.756C108.111 117.756 107.77 117.836 107.478 117.996C107.192 118.149 106.97 118.375 106.81 118.674C106.657 118.967 106.58 119.321 106.58 119.739V122.619H105.839V114.876H106.58V118.643L106.434 118.361C106.608 117.965 106.886 117.655 107.269 117.433C107.652 117.203 108.107 117.088 108.636 117.088ZM115.219 122.671C114.648 122.671 114.147 122.553 113.716 122.316C113.285 122.073 112.947 121.742 112.704 121.325C112.46 120.901 112.338 120.417 112.338 119.875C112.338 119.332 112.453 118.852 112.683 118.434C112.919 118.017 113.239 117.69 113.643 117.453C114.053 117.21 114.512 117.088 115.02 117.088C115.535 117.088 115.991 117.207 116.387 117.443C116.791 117.673 117.107 118 117.337 118.424C117.567 118.841 117.681 119.325 117.681 119.875C117.681 119.909 117.678 119.948 117.671 119.989C117.671 120.024 117.671 120.062 117.671 120.104H112.902V119.551H117.274L116.982 119.77C116.982 119.374 116.895 119.022 116.721 118.716C116.554 118.403 116.325 118.16 116.033 117.986C115.74 117.812 115.403 117.725 115.02 117.725C114.645 117.725 114.307 117.812 114.008 117.986C113.709 118.16 113.476 118.403 113.309 118.716C113.142 119.029 113.058 119.388 113.058 119.791V119.906C113.058 120.323 113.149 120.692 113.33 121.012C113.518 121.325 113.775 121.572 114.102 121.753C114.436 121.927 114.815 122.014 115.239 122.014C115.573 122.014 115.883 121.955 116.168 121.836C116.46 121.718 116.711 121.537 116.92 121.294L117.337 121.774C117.094 122.066 116.787 122.289 116.419 122.442C116.057 122.595 115.657 122.671 115.219 122.671ZM119.189 122.619V117.14H119.899V118.633L119.826 118.372C119.979 117.954 120.236 117.638 120.598 117.422C120.96 117.2 121.409 117.088 121.944 117.088V117.808C121.917 117.808 121.889 117.808 121.861 117.808C121.833 117.801 121.805 117.798 121.777 117.798C121.2 117.798 120.748 117.975 120.421 118.33C120.094 118.678 119.93 119.175 119.93 119.822V122.619H119.189ZM125.573 122.671C125.002 122.671 124.501 122.553 124.07 122.316C123.639 122.073 123.301 121.742 123.058 121.325C122.814 120.901 122.692 120.417 122.692 119.875C122.692 119.332 122.807 118.852 123.037 118.434C123.273 118.017 123.593 117.69 123.997 117.453C124.407 117.21 124.866 117.088 125.374 117.088C125.889 117.088 126.345 117.207 126.741 117.443C127.145 117.673 127.461 118 127.691 118.424C127.921 118.841 128.035 119.325 128.035 119.875C128.035 119.909 128.032 119.948 128.025 119.989C128.025 120.024 128.025 120.062 128.025 120.104H123.256V119.551H127.628L127.336 119.77C127.336 119.374 127.249 119.022 127.075 118.716C126.908 118.403 126.679 118.16 126.387 117.986C126.094 117.812 125.757 117.725 125.374 117.725C124.999 117.725 124.661 117.812 124.362 117.986C124.063 118.16 123.83 118.403 123.663 118.716C123.496 119.029 123.412 119.388 123.412 119.791V119.906C123.412 120.323 123.503 120.692 123.684 121.012C123.872 121.325 124.129 121.572 124.456 121.753C124.79 121.927 125.169 122.014 125.593 122.014C125.927 122.014 126.237 121.955 126.522 121.836C126.814 121.718 127.065 121.537 127.274 121.294L127.691 121.774C127.447 122.066 127.141 122.289 126.773 122.442C126.411 122.595 126.011 122.671 125.573 122.671Z" fill="#808184"/>
<path d="M30.9653 8.666C30.9863 8.583 31.0173 8.50199 31.0173 8.41199V1.073C31.0173 0.482998 30.5353 0 29.9443 0H27.4053C26.8163 0 26.3323 0.482998 26.3323 1.073V8.41199C26.3323 8.50199 26.3623 8.582 26.3843 8.666H23.8863C23.8863 8.666 23.7563 18.576 24.3433 25.602C24.9283 32.629 28.6763 32.35 28.6763 32.35C28.6763 32.35 32.4223 32.629 33.0093 25.602C33.5943 18.576 33.4643 8.666 33.4643 8.666H30.9653Z" fill="#1F3B4F"/>
<path d="M1.17931 5.67402C-4.16769 6.54702 10.1263 9.16602 14.9273 9.60202C19.7283 10.038 22.7833 4.80102 22.7833 4.80102C23.9883 3.18602 6.52531 4.80102 1.17931 5.67402Z" fill="#E51515"/>
<path d="M42.7234 9.60198C47.5244 9.16598 61.8184 6.54698 56.4714 5.67398C51.1244 4.80098 33.6614 3.18498 34.8674 4.80098C34.8674 4.80098 37.9224 10.038 42.7234 9.60198Z" fill="#E51515"/>
<path d="M166.965 8.666C166.986 8.583 167.017 8.50199 167.017 8.41199V1.073C167.017 0.482998 166.535 0 165.944 0H163.405C162.816 0 162.332 0.482998 162.332 1.073V8.41199C162.332 8.50199 162.362 8.582 162.384 8.666H159.886C159.886 8.666 159.756 18.576 160.343 25.602C160.928 32.629 164.676 32.35 164.676 32.35C164.676 32.35 168.422 32.629 169.009 25.602C169.594 18.576 169.464 8.666 169.464 8.666H166.965Z" fill="#1F3B4F"/>
<path d="M137.179 5.67402C131.832 6.54702 146.126 9.16602 150.927 9.60202C155.728 10.038 158.783 4.80102 158.783 4.80102C159.988 3.18602 142.525 4.80102 137.179 5.67402Z" fill="#E51515"/>
<path d="M192.471 5.67398C187.124 4.80098 169.661 3.18498 170.867 4.80098C170.867 4.80098 173.923 10.038 178.723 9.60198C183.523 9.16598 197.817 6.54698 192.471 5.67398Z" fill="#E51515"/>
<path d="M85.0862 50.717H81.5232V57.948H85.0862V50.717Z" fill="#E51515"/>
<path d="M112.126 50.717H108.563V57.948H112.126V50.717Z" fill="#E51515"/>
<path d="M145.991 14.436C138.158 13.936 125.825 13.603 119.491 11.436C113.157 9.26898 102.324 5.60298 96.8242 5.76998C91.3242 5.60298 80.4912 9.26898 74.1572 11.436C67.8232 13.603 55.4902 13.936 47.6572 14.436C39.8242 14.936 37.4902 16.436 37.9902 18.603C38.4902 20.769 44.3242 22.436 48.8242 22.436C53.3242 22.436 63.4902 25.936 64.4902 30.603C65.4902 35.269 62.1572 42.936 58.4902 50.103C54.8232 57.269 56.3242 58.936 62.4902 55.936C68.6562 52.936 69.8242 40.603 73.8242 35.436C77.8242 30.27 83.4902 33.77 83.4902 33.77C83.4902 33.77 83.4902 34.603 83.4902 36.77C83.4902 38.937 82.6572 38.436 85.4902 40.103C86.9592 40.967 89.9482 41.202 92.4902 41.23V45.437H93.6282V46.84H88.3032C87.1682 46.84 86.2402 47.769 86.2402 48.903V60.182C86.2402 61.317 87.1692 62.245 88.3032 62.245H105.345C106.48 62.245 107.408 61.316 107.408 60.182V48.903C107.408 47.768 106.479 46.84 105.345 46.84H100.02V45.437H101.159V41.23C103.701 41.202 106.69 40.967 108.159 40.103C110.992 38.436 110.159 38.937 110.159 36.77C110.159 34.603 110.159 33.77 110.159 33.77C110.159 33.77 115.825 30.27 119.825 35.436C123.825 40.603 124.993 52.936 131.159 55.936C137.325 58.936 138.826 57.269 135.159 50.103C131.492 42.936 128.159 35.269 129.159 30.603C130.159 25.936 140.325 22.436 144.825 22.436C149.325 22.436 155.159 20.769 155.659 18.603C156.158 16.436 153.824 14.936 145.991 14.436ZM103.173 54.294C103.173 57.8 100.33 60.643 96.8242 60.643C93.3172 60.643 90.4752 57.801 90.4752 54.294C90.4752 50.788 93.3172 47.945 96.8242 47.945C100.33 47.945 103.173 50.788 103.173 54.294Z" fill="#1F3B4F"/>
<path d="M98.9052 54.073C97.7902 54.073 96.8872 53.17 96.8872 52.055C96.8872 51.391 97.2122 50.807 97.7072 50.439C97.4222 50.373 97.1282 50.332 96.8232 50.332C94.6352 50.332 92.8622 52.105 92.8622 54.293C92.8622 56.481 94.6352 58.253 96.8232 58.253C99.0112 58.253 100.784 56.48 100.784 54.293C100.784 53.892 100.707 53.512 100.595 53.147C100.237 53.704 99.6152 54.073 98.9052 54.073Z" fill="#1F3B4F"/>
</svg>
