<svg width="798" height="544" viewBox="0 0 798 544" fill="none" xmlns="http://www.w3.org/2000/svg">
<path d="M41.8875 407.622L0.871826 541.506H33.1468L40.55 516.559H80.5593L87.7625 541.506H122.859L81.8468 407.622H41.8875ZM48.6562 489.628L60.8406 447.987L72.8875 489.628H48.6562Z" fill="#FF4646"/>
<path d="M199.975 480.425C199.491 479.906 198.997 479.416 198.494 478.956C199.503 478.575 200.487 478.169 201.45 477.725C205.356 475.931 208.778 473.528 211.622 470.6C214.497 467.644 216.756 464.081 218.334 460.009C219.897 455.987 220.691 451.366 220.691 446.281C220.691 439.272 219.425 433.209 216.937 428.256C214.422 423.247 210.781 419.122 206.122 415.994C201.6 412.963 196.1 410.772 189.772 409.488C183.691 408.253 176.841 407.622 169.419 407.622H127.55V541.506H159.659V489.194H160.612C164.125 489.194 167.053 489.966 169.562 491.559C172.053 493.138 173.962 495.466 175.409 498.691L194.816 541.506H232.175L208.597 493.747C205.741 487.947 202.919 483.594 199.975 480.425ZM186.009 454.741C185.081 456.509 183.794 457.959 182.072 459.172C180.256 460.447 178.003 461.425 175.366 462.081C172.581 462.778 169.403 463.128 165.916 463.128H159.659V434.944H166.716C174.066 434.944 179.528 436.097 182.95 438.375C185.931 440.359 187.381 443.703 187.381 448.603C187.381 450.972 186.931 452.981 186.009 454.741Z" fill="#FF4646"/>
<path d="M326.25 423.522C320.844 418.088 314.025 414.019 305.984 411.434C298.147 408.906 288.922 407.622 278.569 407.622H236.103V541.506H273.069C284.997 541.506 295.431 539.881 304.078 536.678C312.859 533.431 320.194 528.719 325.872 522.675C331.541 516.644 335.766 509.275 338.422 500.778C341.028 492.459 342.347 483.103 342.347 472.969C342.347 461.922 341.025 452.231 338.412 444.166C335.744 435.903 331.653 428.959 326.25 423.522ZM299.997 504.888C294.422 511.081 286.334 514.091 275.272 514.091H268.209V435.037H276.969C283.159 435.037 288.356 435.913 292.409 437.641C296.341 439.313 299.381 441.675 301.706 444.856C304.081 448.119 305.803 452.213 306.822 457.016C307.894 462.097 308.441 467.984 308.441 474.516C308.441 488.447 305.6 498.666 299.997 504.888Z" fill="#FF4646"/>
<path d="M419.694 492.794C419.694 497.409 419.269 501.344 418.422 504.487C417.634 507.422 416.475 509.819 414.969 511.609C413.525 513.331 411.759 514.547 409.575 515.325C407.197 516.175 404.156 516.603 400.531 516.603C396.697 516.603 393.534 516.112 391.131 515.141C388.822 514.203 386.966 512.862 385.453 511.047C383.934 509.219 382.847 506.925 382.219 504.219C381.519 501.231 381.166 497.716 381.166 493.759V407.622H349.059V495.209C349.059 502.447 349.956 509.091 351.719 514.953C353.553 521.044 356.578 526.309 360.712 530.594C364.847 534.875 370.259 538.188 376.8 540.428C383.156 542.619 390.837 543.728 399.628 543.728C407.487 543.728 414.7 542.619 421.056 540.428C427.556 538.2 433.159 534.822 437.712 530.384C442.269 525.941 445.803 520.347 448.219 513.759C450.594 507.291 451.8 499.716 451.8 491.244V407.622H419.694V492.794Z" fill="#FF4646"/>
<path d="M468.219 434.556H497.031V514.381H468.219V541.506H558.353V514.381H529.541V434.556H558.353V407.622H468.219V434.556Z" fill="#FF4646"/>
<path d="M647.703 483.909L611.809 407.622H575.469V541.506H605.372V463.769L641.456 541.506H677.613V407.622H647.703V483.909Z" fill="#FF4646"/>
<path d="M781.556 423.463C772.181 411.541 758.128 405.497 739.794 405.497C731.95 405.497 724.469 406.888 717.556 409.628C710.547 412.406 704.353 416.731 699.144 422.494C693.981 428.206 689.881 435.553 686.966 444.325C684.081 452.984 682.619 463.369 682.619 475.194C682.619 497.038 687.266 514.031 696.428 525.713C705.803 537.669 719.856 543.728 738.191 543.728C746.037 543.728 753.525 542.337 760.438 539.597C767.45 536.816 773.641 532.487 778.844 526.734C784 521.025 788.1 513.681 791.025 504.903C793.903 496.247 795.366 485.862 795.366 474.031C795.366 452.125 790.719 435.109 781.556 423.463ZM760.425 493.028C759.506 497.969 758.072 502.134 756.163 505.413C754.35 508.534 752.106 510.822 749.309 512.4C746.522 513.972 743.05 514.769 738.994 514.769C730.969 514.769 725.375 511.781 721.894 505.641C718.069 498.894 716.128 488.262 716.128 474.031C716.128 467.35 716.609 461.347 717.566 456.2C718.484 451.269 719.928 447.109 721.866 443.831C723.709 440.697 725.959 438.403 728.744 436.819C731.491 435.253 734.938 434.459 738.994 434.459C747.081 434.459 752.691 437.441 756.138 443.572C759.934 450.322 761.859 460.963 761.859 475.194C761.859 481.894 761.378 487.894 760.425 493.028Z" fill="#FF4646"/>
<path d="M748.984 18.0625H754.681V33.0406H758.722V18.0625H764.466V14.3438H748.984V18.0625Z" fill="#FF4646"/>
<path d="M778.525 14.3438L774.628 27.0875L770.597 14.3438H765.325V33.0406H769.125V21.0969L772.894 33.0406H776.363L779.937 21.4062V33.0406H783.719V14.3438H778.525Z" fill="#FF4646"/>
<path d="M592.609 376.147C541.709 376.147 498.191 358.984 459.891 323.881C436.231 302.203 416.725 275.644 398.778 248.028C380.834 275.644 361.325 302.203 337.669 323.881C296.516 361.597 249.334 378.603 193.453 375.863C86.8875 375.4 0.334351 291.3 0.334351 187.994C0.334351 84.4031 87.3625 0.125 194.334 0.125C252.872 0.125 302.156 19.4969 344.991 59.3438C365.566 78.4844 382.934 100.687 398.778 123.919C414.622 100.687 431.994 78.4844 452.566 59.3438C495.4 19.4969 544.684 0.125 603.222 0.125C710.197 0.125 797.222 84.4031 797.222 187.994C797.222 291.3 710.672 375.4 604.103 375.863C600.231 376.053 596.397 376.147 592.609 376.147ZM437.75 185.488C458.981 219.934 479.587 251.997 504.687 274.997C533.019 300.962 562.881 311.644 601.484 309.603L603.222 309.556C673.631 309.556 730.916 255.025 730.916 187.994C730.916 120.966 673.631 66.4313 603.222 66.4313C561.656 66.4313 528.134 79.6063 497.728 107.891C475.019 129.019 456.269 156.088 437.75 185.488ZM194.334 66.4313C123.925 66.4313 66.6406 120.966 66.6406 187.994C66.6406 255.025 123.925 309.556 194.334 309.556L196.075 309.603C234.681 311.644 264.537 300.962 292.869 274.997C317.969 251.997 338.578 219.934 359.806 185.488C341.287 156.088 322.537 129.019 299.831 107.891C269.422 79.6063 235.9 66.4313 194.334 66.4313Z" fill="#FF4646"/>
<path d="M611.991 163.897V127.941H574.566V163.897H538.612V201.141H574.566V237.362H611.991V201.141H647.947V163.897H611.991Z" fill="#FF4646"/>
<path d="M140.497 163.447H258.675V201.859H140.497V163.447Z" fill="#FF4646"/>
</svg>


